<svg width="22" height="22" xmlns="http://www.w3.org/2000/svg"><path d="M7.033 14.698c-1.13-1.938-1.816-3.55-2.055-4.835-.254-1.357-.34-2.506-.297-3.377.067-1.357.394-2.088.458-2.255.557-1.463 3.12-3.25 4.365-2.623 1.244.628 2.321 2.881 2.395 4.715.073 1.834-2.53 1.76-3.171 2.13-.641.37-.324 1.202.016 2.282.22.702.58 1.486 1.077 2.353.502.864 1.002 1.567 1.5 2.11.765.835 1.327 1.525 1.968 1.155.64-.37 1.878-2.662 3.43-1.681 1.551.98 2.964 3.04 2.885 4.431-.078 1.392-2.907 2.718-4.454 2.469-.176-.029-.972-.11-2.181-.73-.776-.398-1.727-1.049-2.776-1.946-.994-.85-2.047-2.25-3.16-4.198z" stroke="#1E64F9" fill="none"/></svg>